{"title":"Powder Blue[2009]DvDRip[Eng]-Uvall","uid":5120166,"size":1265476871,"categoryP":"video","categoryS":"movies","magnet":"?xt=urn:btih:834d6057e02d3271ead10f5eb7920181a9176a22&amp;dn=Powder+Blue%5B2009%5DDvDRip%5BEng%5D-Uvall&amp;tr=udp%3A%2F%2Ftracker.openbittorrent.com%3A80&amp;tr=udp%3A%2F%2Fopen.demonii.com%3A1337&amp;tr=udp%3A%2F%2Ftracker.coppersurfer.tk%3A6969&amp;tr=udp%3A%2F%2Fexodus.desync.com%3A6969","seeders":0,"leechers":0,"uploader":"Uvall","files":5,"time":1255294437,"description":"~~~~~~~~~~~~~~~~~~~~~~~~~~~~~~~~~~~~~~~~~~~~~~~~~~~~~~~~~~~~~~~~~~~\nTitle: Powder Blue[2009]\n~~~~~~~~~~~~~~~~~~~~~~~~~~~~~~~~~~~~~~~~~~~~~~~~~~~~~~~~~~~~~~~~~~~\n~~~~~~~~~~~~~~~~~~~~~~~~~~~~~~~~~~~~~~~~~~~~~~~~~~~~~~~~~~~~~~~~~~~\nRelease Notes\n\nGenre: Drama\n\nRated: R for sexual content, nudity, language and some drug use.\n\nMovie Information: http://www.imdb.com/title/tt1032819/\n\nPlot: Four Los Angelenos -- a mortician, an ex-con, a suicidal \n      ex-priest, and a stripper -- are brought together on \n      Christmas Eve by a mixture of circumstances.\n\nFormat                           : AVI\nFormat/Info                      : Audio Video Interleave\nFile size                        : 1.17 GiB\nDuration                         : 1h 46mn\nOverall bit rate                 : 1 578 Kbps\nMovie name                       : Powder Blue[2009]DvDRip[Eng]-Uvall\nWriting application              : Lavf52.33.0\n\nVideo\nFormat                           : MPEG-4 Visual\nFormat profile                   : Simple@L3\nFormat settings, BVOP            : No\nFormat settings, QPel            : No\nFormat settings, GMC             : No warppoints\nFormat settings, Matrix          : Default (H.263)\nCodec ID                         : XVID\nCodec ID/Hint                    : XviD\nDuration                         : 1h 46mn\nBit rate                         : 1 119 Kbps\nWidth                            : 704 pixels\nHeight                           : 296 pixels\nDisplay aspect ratio             : 2.35:1\nFrame rate                       : 23.976 fps\nResolution                       : 24 bits\nColorimetry                      : 4:2:0\nScan type                        : Progressive\nBits/(Pixel*Frame)               : 0.224\nStream size                      : 850 MiB (71%)\nWriting library                  : XviD 1.2.1 (UTC 2008-12-04)\n\nAudio\nFormat                           : AC-3\nFormat/Info                      : Audio Coding 3\nCodec ID                         : 2000\nDuration                         : 1h 46mn\nBit rate mode                    : Constant\nBit rate                         : 448 Kbps\nChannel(s)                       : 6 channels\nChannel positions                : Front: L C R, Surround: L R, LFE\nSampling rate                    : 48.0 KHz\nStream size                      : 340 MiB (28%)\nAlignment                        : Aligned on interleaves\nInterleave, duration             : 32 ms (0.77 video frame)\nInterleave, preload duration     : 32 ms\n~~~~~~~~~~~~~~~~~~~~~~~~~~~~~~~~~~~~~~~~~~~~~~~~~~~~~~~~~~~~~~~~~~~\n~~~~~~~~~~~~~~~~~~~~~~~~~~~~~~~~~~~~~~~~~~~~~~~~~~~~~~~~~~~~~~~~~~~\nPosted By: Uvall\n~~~~~~~~~~~~~~~~~~~~~~~~~~~~~~~~~~~~~~~~~~~~~~~~~~~~~~~~~~~~~~~~~~~","torrent":{"xt":"urn:btih:834d6057e02d3271ead10f5eb7920181a9176a22","amp;dn":"Powder+Blue%5B2009%5DDvDRip%5BEng%5D-Uvall","amp;tr":["udp%3A%2F%2Ftracker.openbittorrent.com%3A80","udp%3A%2F%2Fopen.demonii.com%3A1337","udp%3A%2F%2Ftracker.coppersurfer.tk%3A6969","udp%3A%2F%2Fexodus.desync.com%3A6969"],"infoHash":"834d6057e02d3271ead10f5eb7920181a9176a22","infoHashBuffer":{"type":"Buffer","data":[131,77,96,87,224,45,50,113,234,209,15,94,183,146,1,129,169,23,106,34]},"announce":[],"urlList":[]}}